
<!-- Generator: visioncortex VTracer 0.6.4 -->
<svg version="1.1" xmlns="http://www.w3.org/2000/svg" viewBox="0 0 500 500" preserveAspectRatio="xMidYMid meet">
<path d="M0 0 C0.99 0 1.98 0 3 0 C2.99 0.936 2.979 1.871 2.968 2.835 C2.562 44.607 7.327 82.93 34 117 C34.66 117.864 35.32 118.727 36 119.617 C41.945 127.257 48.551 133.884 55.898 140.168 C57.348 141.431 58.768 142.728 60.164 144.051 C67.49 150.948 75.567 156.556 84 162 C84.906 162.589 85.811 163.178 86.744 163.784 C95.344 169.237 104.269 173.833 113.392 178.337 C115.867 179.559 118.338 180.789 120.809 182.021 C135.118 189.142 149.528 195.893 164.25 202.125 C177.432 207.718 177.432 207.718 183.793 210.676 C188.465 212.817 193.178 214.485 198.062 216.062 C222.315 224.268 246.05 236.258 267 251 C267.99 251.66 268.98 252.32 270 253 C270 253.66 270 254.32 270 255 C270.66 255.186 271.32 255.371 272 255.562 C276.364 257.654 279.496 260.698 283 264 C284.309 265.212 284.309 265.212 285.645 266.449 C301.142 281.296 309.739 298.469 310.232 320.183 C310.405 341.712 305.508 363.512 291 380 C290.573 380.489 290.145 380.977 289.705 381.481 C273.317 399.886 251.568 409.288 228 415 C226.159 415.449 226.159 415.449 224.281 415.906 C165.067 428.559 98.554 413.255 46.881 383.097 C45.287 382.167 43.682 381.255 42.074 380.348 C31.97 374.53 23.052 367.268 14.531 359.348 C12.308 357.286 10.049 355.289 7.75 353.312 C1.988 348.29 -3.228 342.877 -8.195 337.07 C-9.387 335.703 -10.611 334.363 -11.867 333.055 C-17.843 326.742 -22.178 319.685 -26.623 312.267 C-28.034 309.944 -29.489 307.653 -30.953 305.363 C-62.429 255.538 -67.194 196.632 -54.676 139.927 C-47.428 108.841 -36.683 79.345 -23.915 50.118 C-22.754 47.43 -21.657 44.717 -20.562 42 C-14.59 27.603 -7.507 13.651 0 0 Z " fill="#5F19EB" transform="translate(63,78)"/>
<path d="M0 0 C0.968 0.684 1.936 1.369 2.934 2.074 C13.813 9.954 23.629 18.723 31.902 29.332 C33.506 31.372 35.139 33.325 36.844 35.277 C49.977 50.545 58.853 67.693 67 86 C67.372 86.827 67.745 87.653 68.128 88.505 C86.432 129.47 95.028 176.328 96 221 C96.027 222.135 96.054 223.271 96.083 224.44 C96.689 253.661 95.681 284.722 84 312 C83.01 312 82.02 312 81 312 C80.767 311.149 80.533 310.298 80.293 309.422 C75.889 294.792 68.511 281.237 59.418 268.969 C58.07 267.097 56.963 265.218 55.875 263.188 C53.903 259.836 51.807 257.676 49 255 C47.887 253.716 46.784 252.423 45.688 251.125 C42.095 246.995 38.175 243.526 34 240 C32.956 239.084 31.913 238.166 30.871 237.246 C15.395 223.642 -0.786 214.123 -19.168 204.92 C-21.603 203.697 -24.031 202.463 -26.459 201.229 C-40.475 194.106 -54.563 187.229 -69 181 C-69.802 180.652 -70.605 180.305 -71.431 179.947 C-73.868 178.895 -76.308 177.851 -78.75 176.812 C-79.446 176.516 -80.141 176.219 -80.858 175.913 C-85.007 174.17 -89.189 172.551 -93.412 170.996 C-102.446 167.662 -111.305 163.988 -120.136 160.151 C-122.496 159.127 -124.859 158.112 -127.223 157.098 C-140.349 151.434 -153.366 145.455 -165.625 138.062 C-166.324 137.644 -167.023 137.226 -167.743 136.795 C-169.157 135.944 -170.569 135.089 -171.979 134.23 C-173.288 133.434 -174.6 132.642 -175.916 131.855 C-184.93 126.458 -192.493 120.336 -200 113 C-200.802 112.26 -201.604 111.52 -202.43 110.758 C-216.548 97.422 -225.419 80.863 -226.32 61.363 C-226.852 42.232 -224.355 21.02 -211 6 C-210.34 6 -209.68 6 -209 6 C-208.773 5.464 -208.546 4.928 -208.312 4.375 C-199.626 -11.343 -180.611 -20.038 -164.312 -25.312 C-110.753 -40.36 -45.574 -33.246 0 0 Z " fill="#6019EB" transform="translate(401,36)"/>
<path d="M0 0 C1.485 0.99 1.485 0.99 3 2 C2.67 2.66 2.34 3.32 2 4 C1.34 2.68 0.68 1.36 0 0 Z M3 4 C10.952 10.903 13.138 23.884 14 34 C15.265 57.485 10.933 81.893 -5 100 C-5.427 100.489 -5.855 100.977 -6.295 101.481 C-22.683 119.886 -44.432 129.288 -68 135 C-69.227 135.299 -70.454 135.598 -71.719 135.906 C-107.69 143.592 -155.873 142.969 -190 128 C-186.057 126.686 -183.202 127.743 -179.312 128.75 C-158.698 133.825 -138.534 136.353 -117.315 136.261 C-114.372 136.25 -111.428 136.261 -108.484 136.273 C-97.806 136.282 -87.545 135.827 -77 134 C-76.175 133.865 -75.35 133.729 -74.5 133.59 C-47.824 128.92 -20.862 116.863 -4 95 C4.499 82.696 10.872 67.117 11 52 C11.049 50.581 11.099 49.161 11.148 47.742 C11.512 33.777 10.47 20.696 3.988 8.039 C3 6 3 6 3 4 Z " fill="#F3EDFD" transform="translate(359,358)"/>
<path d="M0 0 C1.955 2.933 2.573 4.731 3.367 8.102 C3.611 9.137 3.855 10.172 4.106 11.238 C4.36 12.356 4.614 13.474 4.875 14.625 C5.139 15.781 5.403 16.938 5.675 18.129 C17.055 69.194 24.147 133.618 3 183 C2.34 183 1.68 183 1 183 C1.603 180.562 2.207 178.125 2.812 175.688 C2.995 174.949 3.177 174.211 3.365 173.45 C4.338 169.536 5.389 165.672 6.562 161.812 C8.038 156.484 8.836 151.088 9.625 145.625 C9.748 144.775 9.871 143.926 9.998 143.05 C11.534 131.865 12.176 120.723 12.125 109.438 C12.12 108.278 12.115 107.119 12.11 105.925 C12.086 102.283 12.046 98.642 12 95 C11.987 93.85 11.975 92.699 11.962 91.514 C11.597 65.348 8 40.041 2.287 14.56 C2.136 13.883 1.985 13.206 1.829 12.509 C1.417 10.674 0.999 8.841 0.579 7.007 C0 4 0 4 0 0 Z " fill="#F1EBFD" transform="translate(482,165)"/>
<path d="M0 0 C1.521 4.004 0.583 7.743 -0.188 11.812 C-0.325 12.56 -0.462 13.308 -0.604 14.078 C-2.543 24.285 -5.067 34.365 -9 44 C-9.66 44 -10.32 44 -11 44 C-10.397 41.562 -9.793 39.125 -9.188 36.688 C-9.005 35.953 -8.823 35.218 -8.635 34.461 C-7.634 30.453 -6.581 26.47 -5.438 22.5 C-3.937 17.136 -2.95 11.7 -2.002 6.217 C-1.101 1.101 -1.101 1.101 0 0 Z " fill="#F6F2FE" transform="translate(494,304)"/>
<path d="M0 0 C-5.503 3.596 -11.166 4.759 -17.5 6.25 C-18.628 6.531 -19.756 6.812 -20.918 7.102 C-22.007 7.362 -23.096 7.622 -24.219 7.891 C-25.208 8.128 -26.197 8.366 -27.217 8.61 C-30.119 9.017 -32.186 8.749 -35 8 C-35 7.67 -35 7.34 -35 7 C-33.972 6.796 -33.972 6.796 -32.924 6.589 C-29.781 5.962 -26.641 5.325 -23.5 4.688 C-21.884 4.367 -21.884 4.367 -20.234 4.041 C-15.474 3.069 -10.922 2.086 -6.406 0.27 C-3 -1 -3 -1 0 0 Z " fill="#F3EEFD" transform="translate(311,486)"/>
<path d="M0 0 C0 4.737 -2.978 7.52 -6 11 C-8.242 13.125 -10.566 15.099 -13 17 C-11.462 13.565 -9.426 10.856 -7.062 7.938 C-6.373 7.08 -5.683 6.223 -4.973 5.34 C-3.384 3.455 -1.779 1.701 0 0 Z " fill="#F8F6FE" transform="translate(360,447)"/>
<path d="M0 0 C0.66 0.33 1.32 0.66 2 1 C-5.298 7.335 -5.298 7.335 -9 10 C-9.66 9.67 -10.32 9.34 -11 9 C-7.671 5.405 -4.01 2.776 0 0 Z " fill="#F0EAFD" transform="translate(341,467)"/>
<path d="M0 0 C0.66 0.66 1.32 1.32 2 2 C1.642 7.015 -0.164 11.371 -2 16 C-2.66 16 -3.32 16 -4 16 C-2.68 10.72 -1.36 5.44 0 0 Z " fill="#EDE5FD" transform="translate(487,332)"/>
<path d="M0 0 C0.66 0 1.32 0 2 0 C1.745 1.628 1.47 3.252 1.188 4.875 C1.037 5.78 0.886 6.685 0.73 7.617 C0 10 0 10 -3 12 C-2.69 10.562 -2.377 9.125 -2.062 7.688 C-1.888 6.887 -1.714 6.086 -1.535 5.262 C-1 3 -1 3 0 0 Z " fill="#F0E9FD" transform="translate(368,424)"/>
<path d="M0 0 C-3.334 2.191 -6.042 3.435 -10 4 C-9.67 3.01 -9.34 2.02 -9 1 C-3.792 -1.264 -3.792 -1.264 0 0 Z " fill="#EBE2FC" transform="translate(311,486)"/>
</svg>